<mxfile host="app.diagrams.net" modified="2023-09-17T12:09:24.293Z" agent="Mozilla/5.0 (Windows NT 10.0; Win64; x64) AppleWebKit/537.36 (KHTML, like Gecko) Chrome/116.0.0.0 Safari/537.36 Edg/116.0.1938.81" etag="79H2tQSdGY6DZ4R02xpP" version="21.7.5" type="github">
  <diagram name="第 1 页" id="MOgHDROKZ-yO5tgH1vkC">
    <mxGraphModel dx="746" dy="467" grid="0" gridSize="10" guides="1" tooltips="1" connect="1" arrows="1" fold="1" page="1" pageScale="1" pageWidth="827" pageHeight="1169" math="0" shadow="0">
      <root>
        <mxCell id="0" />
        <mxCell id="1" parent="0" />
        <mxCell id="W_vjhA2W_OoFwrWK7wQY-1" value="政务信息查询" style="ellipse;whiteSpace=wrap;html=1;aspect=fixed;fillColor=#dae8fc;strokeColor=#6c8ebf;" vertex="1" parent="1">
          <mxGeometry x="210" y="200" width="80" height="80" as="geometry" />
        </mxCell>
        <mxCell id="W_vjhA2W_OoFwrWK7wQY-2" value="政府办公&lt;br&gt;自动化" style="ellipse;whiteSpace=wrap;html=1;aspect=fixed;fillColor=#dae8fc;strokeColor=#6c8ebf;" vertex="1" parent="1">
          <mxGeometry x="350" y="70" width="80" height="80" as="geometry" />
        </mxCell>
        <mxCell id="W_vjhA2W_OoFwrWK7wQY-3" value="公共政务办公" style="ellipse;whiteSpace=wrap;html=1;aspect=fixed;fillColor=#dae8fc;strokeColor=#6c8ebf;" vertex="1" parent="1">
          <mxGeometry x="480" y="200" width="80" height="80" as="geometry" />
        </mxCell>
        <mxCell id="W_vjhA2W_OoFwrWK7wQY-5" value="社会公众企业" style="rounded=0;whiteSpace=wrap;html=1;" vertex="1" parent="1">
          <mxGeometry x="320" y="310" width="130" height="40" as="geometry" />
        </mxCell>
        <mxCell id="W_vjhA2W_OoFwrWK7wQY-6" value="政府工作人员" style="rounded=0;whiteSpace=wrap;html=1;" vertex="1" parent="1">
          <mxGeometry x="500" y="85" width="120" height="45" as="geometry" />
        </mxCell>
        <mxCell id="W_vjhA2W_OoFwrWK7wQY-8" value="" style="endArrow=classic;startArrow=classic;html=1;rounded=0;" edge="1" parent="1">
          <mxGeometry width="50" height="50" relative="1" as="geometry">
            <mxPoint x="290" y="200" as="sourcePoint" />
            <mxPoint x="340" y="150" as="targetPoint" />
          </mxGeometry>
        </mxCell>
        <mxCell id="W_vjhA2W_OoFwrWK7wQY-9" value="信息更新" style="text;html=1;align=center;verticalAlign=middle;resizable=0;points=[];autosize=1;strokeColor=none;fillColor=none;" vertex="1" parent="1">
          <mxGeometry x="245" y="138" width="70" height="30" as="geometry" />
        </mxCell>
        <mxCell id="W_vjhA2W_OoFwrWK7wQY-10" value="用户反馈" style="text;html=1;align=center;verticalAlign=middle;resizable=0;points=[];autosize=1;strokeColor=none;fillColor=none;" vertex="1" parent="1">
          <mxGeometry x="315" y="168" width="70" height="30" as="geometry" />
        </mxCell>
        <mxCell id="W_vjhA2W_OoFwrWK7wQY-11" value="" style="endArrow=classic;startArrow=classic;html=1;rounded=0;" edge="1" parent="1">
          <mxGeometry width="50" height="50" relative="1" as="geometry">
            <mxPoint x="480" y="200" as="sourcePoint" />
            <mxPoint x="430" y="148" as="targetPoint" />
          </mxGeometry>
        </mxCell>
        <mxCell id="W_vjhA2W_OoFwrWK7wQY-12" value="事务反馈" style="text;html=1;align=center;verticalAlign=middle;resizable=0;points=[];autosize=1;strokeColor=none;fillColor=none;" vertex="1" parent="1">
          <mxGeometry x="400" y="178" width="70" height="30" as="geometry" />
        </mxCell>
        <mxCell id="W_vjhA2W_OoFwrWK7wQY-13" value="事务受理" style="text;html=1;align=center;verticalAlign=middle;resizable=0;points=[];autosize=1;strokeColor=none;fillColor=none;" vertex="1" parent="1">
          <mxGeometry x="450" y="150" width="70" height="30" as="geometry" />
        </mxCell>
        <mxCell id="W_vjhA2W_OoFwrWK7wQY-15" value="" style="endArrow=classic;startArrow=classic;html=1;rounded=0;entryX=1.008;entryY=0.725;entryDx=0;entryDy=0;entryPerimeter=0;" edge="1" parent="1" target="W_vjhA2W_OoFwrWK7wQY-1">
          <mxGeometry width="50" height="50" relative="1" as="geometry">
            <mxPoint x="350" y="300" as="sourcePoint" />
            <mxPoint x="280" y="270" as="targetPoint" />
          </mxGeometry>
        </mxCell>
        <mxCell id="W_vjhA2W_OoFwrWK7wQY-16" value="" style="endArrow=classic;startArrow=classic;html=1;rounded=0;exitX=0.8;exitY=-0.15;exitDx=0;exitDy=0;exitPerimeter=0;" edge="1" parent="1" source="W_vjhA2W_OoFwrWK7wQY-5">
          <mxGeometry width="50" height="50" relative="1" as="geometry">
            <mxPoint x="410" y="310" as="sourcePoint" />
            <mxPoint x="481.83" y="260" as="targetPoint" />
          </mxGeometry>
        </mxCell>
        <mxCell id="W_vjhA2W_OoFwrWK7wQY-17" value="" style="endArrow=classic;startArrow=classic;html=1;rounded=0;" edge="1" parent="1">
          <mxGeometry width="50" height="50" relative="1" as="geometry">
            <mxPoint x="440" y="109.5" as="sourcePoint" />
            <mxPoint x="500" y="109.5" as="targetPoint" />
          </mxGeometry>
        </mxCell>
      </root>
    </mxGraphModel>
  </diagram>
</mxfile>
